Coordinates
version=1
nRows=32
nColumns=34
inDegrees=no

Units are S.I. units (second, meters, Newtons, ...)
If the header above contains a line with 'inDegrees', this indicates whether rotational values are in degrees (yes) or radians (no).

endheader
time	pelvis_tilt	pelvis_list	pelvis_rotation	pelvis_tx	pelvis_ty	pelvis_tz	hip_flexion_r	hip_adduction_r	hip_rotation_r	knee_angle_r	ankle_angle_r	subtalar_angle_r	mtp_angle_r	hip_flexion_l	hip_adduction_l	hip_rotation_l	knee_angle_l	ankle_angle_l	subtalar_angle_l	mtp_angle_l	lumbar_extension	lumbar_bending	lumbar_rotation	arm_flex_r	arm_add_r	arm_rot_r	elbow_flex_r	pro_sup_r	arm_flex_l	arm_add_l	arm_rot_l	elbow_flex_l	pro_sup_l
1.29	-0.0821483	-0.00184227	-0.0210698	-0.147125	0.959241	-0.603812	0.0268917	-0.071578	0.164554	0.0208183	0.111405	-0.230829	0	0.015873	-0.0676404	0.13621	0.00313532	0.0832175	-0.265776	0	-0.015376	-0.000567396	-0.0598467	-0.0617269	-0.161983	0.073377	0.651161	2.09	-0.0883703	-0.157429	0.0274689	0.616979	2.09
1.3	-0.0821137	-0.00172622	-0.0211343	-0.147094	0.959248	-0.603807	0.026893	-0.071703	0.16442	0.0209246	0.111788	-0.230634	0	0.0158028	-0.0675206	0.13618	0.0031614	0.0831552	-0.265817	0	-0.0153813	-0.000631031	-0.0600998	-0.0614115	-0.162151	0.0748387	0.650745	2.09	-0.088444	-0.157464	0.0273636	0.617164	2.09
1.31	-0.0820884	-0.00165583	-0.0210767	-0.147058	0.95926	-0.603793	0.026897	-0.0717609	0.164365	0.0210791	0.111988	-0.230462	0	0.0157634	-0.0674476	0.136317	0.00317779	0.0830765	-0.266066	0	-0.0153309	-0.00063129	-0.0602846	-0.061331	-0.162246	0.0754657	0.650702	2.09	-0.0884479	-0.157631	0.0275283	0.617303	2.09
1.32	-0.0821176	-0.00173733	-0.0210602	-0.14702	0.959268	-0.603767	0.026919	-0.0716207	0.164413	0.0211642	0.111926	-0.230235	0	0.015787	-0.067535	0.136483	0.00321939	0.0829982	-0.266457	0	-0.01522	-0.000501496	-0.0603511	-0.0612955	-0.162249	0.0756574	0.650659	2.09	-0.0884108	-0.157793	0.0278837	0.617487	2.09
1.33	-0.0822192	-0.00192954	-0.0211461	-0.147	0.95927	-0.603725	0.027028	-0.071339	0.164487	0.0212124	0.11195	-0.230115	0	0.0159113	-0.0677647	0.136489	0.00331998	0.0829317	-0.266645	0	-0.0150865	-0.000264399	-0.0603719	-0.0611354	-0.162082	0.0755371	0.650444	2.09	-0.0883141	-0.157791	0.0280197	0.617616	2.09
1.34	-0.0824209	-0.00219395	-0.0212723	-0.147	0.959263	-0.603689	0.0273027	-0.0710063	0.164608	0.0213047	0.112058	-0.23015	0	0.016171	-0.0680821	0.136417	0.0034569	0.082921	-0.266729	0	-0.0148998	0.000121867	-0.0604645	-0.0608802	-0.161886	0.0752608	0.650211	2.09	-0.0882109	-0.157735	0.0282005	0.617664	2.09
1.35	-0.0827201	-0.00234903	-0.0213357	-0.147007	0.959249	-0.603687	0.0277	-0.0708408	0.16468	0.0214001	0.112008	-0.229982	0	0.0165686	-0.0682532	0.136489	0.00361425	0.0830008	-0.266817	0	-0.0146127	0.000467796	-0.0606287	-0.0606588	-0.161818	0.0752093	0.650059	2.09	-0.0880963	-0.157776	0.0287075	0.617641	2.09
1.36	-0.0829246	-0.00222551	-0.0212898	-0.147001	0.959238	-0.603699	0.0278968	-0.0709814	0.164421	0.0213567	0.111898	-0.229416	0	0.0168557	-0.0681148	0.136762	0.00372904	0.0830423	-0.266888	0	-0.0143853	0.000481456	-0.0607816	-0.0605639	-0.161784	0.0751838	0.650047	2.09	-0.08792	-0.157862	0.0290304	0.617615	2.09
1.37	-0.0830418	-0.0021472	-0.0212113	-0.146991	0.959236	-0.603673	0.0279899	-0.0710048	0.164142	0.0213403	0.111964	-0.229265	0	0.0170305	-0.0680711	0.136913	0.00379948	0.0830381	-0.26688	0	-0.0142589	0.000474221	-0.0609592	-0.0605085	-0.161641	0.0744673	0.65024	2.09	-0.0877442	-0.157908	0.0289519	0.617615	2.09
1.38	-0.0831566	-0.00217798	-0.02115	-0.146986	0.959234	-0.603624	0.0281128	-0.0708958	0.164061	0.0213732	0.112078	-0.229656	0	0.0171892	-0.0681628	0.136931	0.00385279	0.0830316	-0.266838	0	-0.0141927	0.00056329	-0.06114	-0.0604787	-0.161422	0.07342	0.650621	2.09	-0.0876061	-0.157966	0.0288563	0.617648	2.09
1.39	-0.0833196	-0.00223538	-0.0212018	-0.146985	0.95922	-0.603589	0.0282843	-0.0707898	0.164299	0.021355	0.112074	-0.23012	0	0.01734	-0.0682567	0.136894	0.00382937	0.0829551	-0.266881	0	-0.0141045	0.000726758	-0.0611418	-0.0604547	-0.16127	0.0731113	0.650864	2.09	-0.0874407	-0.158008	0.0289459	0.617665	2.09
1.4	-0.0836639	-0.00226934	-0.0213284	-0.146988	0.959191	-0.60357	0.0286511	-0.070727	0.16467	0.0213027	0.111954	-0.230395	0	0.0176549	-0.0683006	0.136893	0.00374013	0.0827176	-0.267144	0	-0.0137919	0.000922427	-0.0611037	-0.0603706	-0.16127	0.0734237	0.650943	2.09	-0.0872688	-0.157957	0.029167	0.617617	2.09
1.41	-0.0840335	-0.00225633	-0.0213496	-0.146989	0.959171	-0.603556	0.0290715	-0.0707231	0.164714	0.0213275	0.111783	-0.230415	0	0.0180554	-0.0682946	0.136959	0.00373776	0.0825553	-0.267369	0	-0.0134194	0.00106135	-0.0613181	-0.0602236	-0.161299	0.073357	0.651098	2.09	-0.0872042	-0.157881	0.0294907	0.617709	2.09
1.42	-0.0842783	-0.00220521	-0.0213184	-0.146983	0.959162	-0.603542	0.0293833	-0.0707646	0.164599	0.0214252	0.111598	-0.230134	0	0.0183706	-0.0682542	0.137002	0.00384468	0.0826218	-0.267396	0	-0.0131747	0.00114349	-0.0615466	-0.0600831	-0.161289	0.0734601	0.651191	2.09	-0.0871483	-0.157891	0.0300203	0.617939	2.09
1.43	-0.0843508	-0.00209622	-0.0213097	-0.146971	0.959161	-0.603529	0.0294832	-0.0708693	0.164505	0.0214991	0.111642	-0.229571	0	0.0184614	-0.0681505	0.137012	0.00389037	0.0827598	-0.267373	0	-0.0131286	0.00115059	-0.0616184	-0.0599207	-0.161244	0.0743354	0.650978	2.09	-0.0869891	-0.157985	0.0304057	0.618101	2.09
1.44	-0.0843435	-0.00194995	-0.0213033	-0.146966	0.959164	-0.60351	0.0294859	-0.071016	0.164424	0.0215484	0.111923	-0.229282	0	0.0184073	-0.0680124	0.137041	0.00379641	0.0827009	-0.267459	0	-0.0132258	0.00107418	-0.0616876	-0.0597054	-0.161185	0.0751634	0.650743	2.09	-0.0867885	-0.158098	0.0303616	0.618168	2.09
1.45	-0.084417	-0.00188726	-0.0213246	-0.146972	0.959164	-0.603487	0.0295744	-0.071077	0.164361	0.0215456	0.112114	-0.229429	0	0.0184194	-0.0679641	0.137112	0.00366386	0.082462	-0.267673	0	-0.0132778	0.00107212	-0.0618155	-0.0594921	-0.16117	0.0754831	0.650803	2.09	-0.0866682	-0.158189	0.0302227	0.618245	2.09
1.46	-0.0846223	-0.00202131	-0.0213853	-0.146973	0.95915	-0.603465	0.029764	-0.0709154	0.164386	0.0214568	0.112147	-0.22953	0	0.018564	-0.0681186	0.137265	0.00355239	0.082236	-0.268053	0	-0.0131459	0.00131265	-0.0619394	-0.0593281	-0.161207	0.0757426	0.651022	2.09	-0.0866433	-0.15826	0.030441	0.61833	2.09
1.47	-0.0848302	-0.0022579	-0.0214343	-0.146966	0.959132	-0.603446	0.0299713	-0.0706178	0.164445	0.0214355	0.112193	-0.229391	0	0.0187166	-0.0683834	0.137483	0.00344178	0.0820126	-0.268607	0	-0.0129696	0.0016585	-0.0620376	-0.0591664	-0.16123	0.0760431	0.651118	2.09	-0.0866116	-0.158319	0.0309605	0.618378	2.09
1.48	-0.0850027	-0.00243416	-0.0214732	-0.14697	0.959122	-0.603426	0.030236	-0.0703623	0.164381	0.0215689	0.112222	-0.229145	0	0.0188896	-0.068597	0.137617	0.00336751	0.0816919	-0.269164	0	-0.0128801	0.0018945	-0.0620945	-0.0589588	-0.161206	0.0762008	0.651087	2.09	-0.0865022	-0.158362	0.0313917	0.618381	2.09
1.49	-0.08527	-0.00259058	-0.0215031	-0.147002	0.959112	-0.60339	0.0306085	-0.0701221	0.164257	0.0216341	0.112106	-0.229063	0	0.0192527	-0.0688244	0.137652	0.00339446	0.0813891	-0.269497	0	-0.0127571	0.00206151	-0.0621308	-0.0587501	-0.161133	0.0762909	0.651082	2.09	-0.0863561	-0.158425	0.0315663	0.618369	2.09
1.5	-0.085638	-0.00281773	-0.0214902	-0.147047	0.959094	-0.603335	0.0310029	-0.0698141	0.164345	0.0215258	0.111883	-0.229591	0	0.0197598	-0.069161	0.137717	0.00350696	0.0812716	-0.269543	0	-0.0125314	0.0022802	-0.0621717	-0.0586063	-0.161033	0.0763367	0.651097	2.09	-0.0862347	-0.15853	0.0316822	0.618426	2.09
1.51	-0.0859825	-0.00301881	-0.0214729	-0.147071	0.959072	-0.603288	0.0313554	-0.0695373	0.164666	0.0214384	0.111647	-0.230468	0	0.0201947	-0.0694479	0.137728	0.00360656	0.0813173	-0.269408	0	-0.0122947	0.00252772	-0.0621792	-0.0585339	-0.160963	0.0762129	0.651098	2.09	-0.0861663	-0.158616	0.0319203	0.61857	2.09
1.52	-0.0862722	-0.00307296	-0.0214801	-0.147073	0.959053	-0.603265	0.0316386	-0.0694266	0.164968	0.0213682	0.111417	-0.230807	0	0.0205015	-0.0695317	0.137521	0.00360373	0.0814245	-0.269135	0	-0.0120737	0.00269879	-0.0621656	-0.0585091	-0.160936	0.0759554	0.651177	2.09	-0.0861603	-0.158662	0.0321946	0.618718	2.09
1.53	-0.0865174	-0.00300754	-0.0214551	-0.147066	0.959038	-0.603251	0.0317805	-0.0694828	0.16514	0.0211483	0.111138	-0.230673	0	0.0207271	-0.0694901	0.137288	0.00352087	0.0815179	-0.268751	0	-0.0118537	0.00271571	-0.0621904	-0.0584971	-0.160879	0.0757307	0.651251	2.09	-0.0861975	-0.158718	0.0324107	0.618846	2.09
1.54	-0.0867133	-0.00293663	-0.0214216	-0.147063	0.959031	-0.603228	0.0318789	-0.0695653	0.165279	0.0209446	0.110803	-0.230924	0	0.0209095	-0.0694681	0.137324	0.00347081	0.0815357	-0.268533	0	-0.0116609	0.00264877	-0.0622096	-0.0584352	-0.160756	0.0756109	0.651111	2.09	-0.0862283	-0.158793	0.0326497	0.618974	2.09
1.55	-0.0869359	-0.00296965	-0.021497	-0.14708	0.959026	-0.603193	0.0321828	-0.0694951	0.165545	0.0209899	0.110559	-0.231668	0	0.021167	-0.0695536	0.137487	0.00351379	0.0815207	-0.268706	0	-0.0114682	0.00268358	-0.062139	-0.0582879	-0.160642	0.0755989	0.650869	2.09	-0.0862024	-0.15886	0.0329309	0.61904	2.09
1.56	-0.0872311	-0.0030625	-0.0216551	-0.147116	0.959019	-0.603158	0.0326595	-0.069328	0.165974	0.0211377	0.110499	-0.232366	0	0.0215528	-0.0696913	0.137448	0.00361254	0.0815719	-0.268924	0	-0.0112419	0.00280254	-0.061996	-0.0581318	-0.160609	0.0756853	0.650784	2.09	-0.0861156	-0.158926	0.0331476	0.619012	2.09
1.57	-0.0874939	-0.00303265	-0.0217264	-0.14714	0.959015	-0.603131	0.0330086	-0.0693131	0.166294	0.0211696	0.110492	-0.232717	0	0.021904	-0.0696994	0.137243	0.00370463	0.0816419	-0.268726	0	-0.0110404	0.00279645	-0.0618429	-0.0580913	-0.160609	0.0757078	0.650813	2.09	-0.0860017	-0.159009	0.0333372	0.618958	2.09
1.58	-0.0876278	-0.00288689	-0.0216795	-0.147139	0.959016	-0.603113	0.0331303	-0.0694436	0.166253	0.0211426	0.110451	-0.232599	0	0.0220721	-0.0695698	0.137095	0.00374346	0.081628	-0.268317	0	-0.0109395	0.00270374	-0.0617248	-0.0581362	-0.160587	0.0755093	0.650811	2.09	-0.0858894	-0.159099	0.0336127	0.618887	2.09
1.59	-0.08765	-0.00283258	-0.0216494	-0.147132	0.959016	-0.603098	0.0331665	-0.0694855	0.166024	0.0211913	0.110473	-0.232133	0	0.0220938	-0.0695058	0.137052	0.00373162	0.081575	-0.268226	0	-0.0109642	0.00274676	-0.0616917	-0.0580972	-0.160611	0.0753059	0.650829	2.09	-0.0858216	-0.159155	0.0338835	0.618812	2.09
1.6	-0.0876197	-0.00288732	-0.021675	-0.147133	0.959011	-0.603085	0.033187	-0.0694226	0.165894	0.0212664	0.110571	-0.231925	0	0.0220578	-0.0695595	0.137065	0.00370592	0.081572	-0.268435	0	-0.0110699	0.00287342	-0.0616957	-0.0579808	-0.160719	0.0753391	0.65091	2.09	-0.0858034	-0.159163	0.0340546	0.618796	2.09
